<?xml version="1.0" encoding="UTF-8"?><svg id="Layer_1" xmlns="http://www.w3.org/2000/svg" viewBox="0 0 124.54 33.14"><defs><style>.cls-1{fill:#818181;}.cls-2{fill:none;}.cls-3{fill:#666;}</style></defs><g id="Layer_1-2"><path class="cls-1" d="M8.6,19.94q-.1,0-.1-.1"/><path class="cls-1" d="M30.3,32.14c.2,.1,.3,.1,.3,.3,0,.1-.1,.2-.1,.3l-.6,.2v-.2l-.2-.2-.4,.2,.1,.2h-1c.2-.2,.4-.1,.7-.1l-.3-.3c-.1,0-.2,.1-.2,.1-.1,0-.2,0-.3-.1l-.1,.3c-.1-.1-.2-.2-.4-.1v.3h-2.2c-.1-.1-.1-.2-.2-.2h-.3q0,.2,.2,.2-.2,.1-.6,.1h-1.3l-.1-.4c-.1,.1-.2,.3-.1,.4h-1.7c-.2,0-.3,0-.5-.1s-.5-.1-.7-.2l-.1,.1c.1,0,.3,.1,.4,.2h-7.6c-1.4,0-2.8-.1-4.2-.4-2.4-.4-4.6-1.5-6.3-3.2-.8-.7-1.4-1.6-1.8-2.5-.4-1.4-.7-2.6-.7-3.8V10.84c0-.4,.1-.7,.3-1.1,.1-.2,.1-.6,.1-.9H.1v-.1c.1-1.6,.8-3,1.8-4.3,.1,.2,.1,.4,0,.6-.1,0-.1,.1,0,.1s.2,0,.2-.1c.1-.2,.2-.4,.2-.6,0-.1,0-.2-.1-.3,1.3-1.4,2.8-2.4,4.4-3v.3c0,.1,.1,.1,.2,.2,.1,0,.2-.1,.2-.1v-.3c0-.1,.1-.2,.3-.2l.1,.4h.1c0-.1,0-.2,.1-.3,.1-.2,.3-.4,.6-.4,.2,0,.3-.1,.5-.1,0,.1,.1,.2,.1,.3s.1,.3-.2,.4c-.2,0-.1,.2-.1,.3,.1-.1,.2-.2,.3-.2,.1-.1,.2-.2,.3-.4,.1-.2,.2-.4,.3-.5,.7-.2,1.5-.3,2.2-.3h0c0,.1-.1,.2,.1,.2s.1-.1,.1-.2v-.1h4c.2,.2,0,.4,.3,.5V.14h2.2c.2,0,.4,0,.4,.2,.4-.1,.8-.2,1.1-.2h47c0,.1,.1,.1,.2,.2h.2c.1,.1,0,.3,.4,.2-.1-.1-.2-.1-.2-.2s.1-.1,.1-.3h1.4q.1,0,.2,.1c.2,0,.4-.1,.5-.1h.6c.2,0,.3,0,.5,.1,.1,.1,.3,.1,.4,.1v-.1l-.2-.1h.3l.1,.2,.2-.1v.2l-.3,.1,.4,.1c0,.3-.4,.5-.2,.8,.3,0,.2-.4,.6-.4l-.1-.2h.7v-.2c-.1-.1-.2-.1-.3,0-.1,.1-.2,.1-.4,0l.2-.5c.2-.1,.4,0,.5,.2l.1-.1,.1,.1h.1v.1c.1,.1,.1,.3,.1,.4v.4c.3,.2,.5,0,.7-.1l-.4-.4c.2-.2,.5-.1,.7-.1s.4-.1,.6-.1c.1,.2,.1,.4,.2,.6,0,.1,.1,.1,.2,.1,0-.1,0-.2,.1-.4l.3-.3,.2,.2c.1,0,.2-.1,.1-.3h.4c-.1,.1-.1,.3-.2,.4q0,.1-.1,.2t-.1,.1h-.1c-.2-.1-.2,0-.4,0l.1,.1-.2,.2-.2-.2v.2h-.1l-.2-.4-.3,.2c0,.2,0,.4-.1,.6q-.1-.1-.3,0h.3c-.1,.1-.2,.1-.1,.2,0,.1,.1,.1,.1,.2h-.4v-.2h-.1q-.1,.2-.6,.4l-.1-.2c-.1,.2-.3,.3-.5,.1h-.4q-.3-.1-.4,.1c-.2,0-.6,.1-.7-.1l-.5,.1c0-.2,.2-.3,.3-.4,.1,0,.2,.1,.3,0,.2-.1,.3-.1,.5-.1,0-.1,0-.2-.3-.2h-.5l.1,.2-.2,.1c-.1-.2-.2-.2-.4-.2-.1,0-.2,.1-.3,.1l.1,.4h-2.2c-.1,0-.2,0-.1-.1h.3q0-.1-.1-.2c-.1,0-.2,.1-.1,.1-.1-.1-.2-.1-.3,0-.3,.1-.7,.1-1,0h-.1c-.1,.1-.3,.1-.5,.1h-1.3l.3-.5v.4l.1-.2-.6-.2c0,.2-.1,.3-.1,.4q-.1,.2-.4,.2H21.8l-.1-.6c-.3,.2-.1,.4-.2,.5H13.1c0-.2,.1-.4,.1-.6,0-.1,0-.3,.1-.4q0-.2-.3-.3c-.2,0-.3,.2-.2,.4v1h-.4c-.7,0-1.5,0-2.2,.1-.3,0-.6,.1-.8,.2h-.2l-.4-.4c-.2,0-.1,.2-.3,.2,0,.1,.1,.2,.1,.3s-.1,.2-.3,.3c-.3,.1-.6,.2-.9,.4l-.3-.3c0,.5-.4,.6-.7,.7-.2-.2,.2-.4,0-.6-.4,0-.2,.2-.3,.3-.1,.2-.1,.4,0,.5l-.4,.3-.2-.1-.1,.1c0,.2-.1,.3-.3,.5-1.2,1-2.1,2.4-2.3,4v15c.1,3,2,5.1,5.5,6.4,.2,.1,.4,.2,.5,.2,1,.2,2.1,.4,3.2,.4h11.3c.1,.1,.1,.3,.2,.4s.2,.2,.4,.2c.2-.2-.1-.4-.1-.6h3.4l-.2,.3,.4-.1c.1,.2-.1,.5,.4,.4,0-.1,.1-.1,.1-.2,.2-.1,.3-.3,.5-.4h.1c0,.2-.1,.3,.2,.4l.2-.1v-.4c.4,0,.9,0,1.3,.1h.2c.2-.1,.4,0,.6,.1,.1,.1,.2,.1,.3,0,.2-.1,.4-.1,.6-.1l-.1,.1c0,.1,.1,.2,.1,.3s.1,.2,.2,.3l-.1,.2c0-.1-.1-.1-.1-.2-.1,0-.1-.1-.2-.1-.2,.1-.4,.2-.6,.4-.1,0-.1,.1,0,.2,.3,.1,.3,.2,0,.3,0-.1-.1-.2-.1-.3-.1-.1-.1-.2-.2-.2l.2-.1-.4-.3-.1,.4-.5-.3c-.1,.2-.1,.4-.2,.5,0,.1-.1,.1-.2,.2h.3c.1,0,.2,0,.2,.1,0,.2-.1,.3,.2,.4l-.3-.4c.1,0,.1,.1,.2,.1s.1,0,.1-.1c.1,0,0,0,0-.1h0ZM72,1.34l.2,.3v-.2c.1,.1,.2,.1,.3,0l-.2-.2c.1,.1,.2,0,.3,0-.2-.1-.2,0-.3,.1h-.3ZM28.5,31.94v-.2l-.1-.1-.1,.1c0,.1,.1,.2,.2,.2h0c.1,.2,.2,.3,.3,.4,.1-.1,.2-.2,0-.3,0,0-.2-.1-.3-.1Zm-2.2,.4l.1-.1c0-.1-.1-.2-.3-.2l.2,.3c-.3-.1-.2-.3-.3-.4-.2,.1-.3,.3-.2,.3,.2,.1,.3,.2,.6,.3l-.1-.2ZM69.8,1.14l-.2,.1,.3,.2-.1-.3c.1-.1,.3,0,.3-.2s-.2-.2-.3-.2c-.1-.1-.3,0-.3,.1,.1,.1,.1,.2,.2,.3-.1,0,0,0,.1,0h0ZM15.3,1.14h.2c-.1-.2-.1-.4-.2-.6,0-.1-.1-.2-.1-.2-.1-.1-.2-.1-.3,0h0v.7c.1,.2,0,.4,.2,.5,.3-.1,.1-.2,.2-.4Zm13.8,29.9c.2,.2,0,.5,.3,.8q-.2,.2,0,.4c0-.2,.3-.2,.4-.2,0-.1-.1-.2-.1-.2,0-.5-.4-.6-.6-.8ZM2,11.64c.3-.4,.4-.7,.2-.9-.1,0-.2,.1-.2,.1-.1,.3-.1,.5,0,.8ZM68.4,.24c-.3,.2-.3,.3-.1,.4,.1,.1,.2,0,.3-.1,.1-.1,.1-.2-.2-.3ZM21,32.34h.1l.4-.2c0-.2-.2-.2-.4-.2l-.1,.4ZM68.7,2.24c.2-.2-.1-.3-.2-.4l-.3,.1h.3c0,.2,0,.3,.2,.3Zm-.2-1.4c.1,.1,.2,.1,.3,.2,.1,0,.2,0,.3-.1v-.1c-.1,0-.1-.1-.2-.1-.2,0-.3,.1-.4,.1ZM1.8,12.14h0c-.2,.1-.2,.2-.3,.4l.1,.1c.1,0,.2-.1,.2-.1,.1-.1,.1-.3,0-.4ZM21.3,31.14c.1,.2,.1,.4,.4,.3q0-.2-.4-.3h0Zm-4,.9c0-.2-.1-.3-.4-.3,0,.2,.2,.3,.4,.3h0Zm-.7-30.5v-.2l-.1-.1c-.1,0-.1,.1-.1,.2s0,.2,.2,.1Zm7.6,29.9c0,.1,.1,.2,.3,.2,.1,0,.1-.1,.1-.2-.2-.1-.3-.1-.4,0h0ZM73.3,2.14v-.3l-.5,.2,.5,.1Zm.6-1c.2-.2,.1-.3-.2-.4l.2,.4Zm-4.7,.3h0c0-.1,0-.2-.1-.2h-.2v.1c.1,0,.2,.1,.3,.1h0ZM7.1,2.24c.3-.1,.3-.2,.1-.4-.1,.1-.2,.2-.1,.4,0-.1,0,0,0,0Zm10.3-.3l-.2-.1-.1,.1,.1,.1,.2-.1Zm-3,29.8h0l-.3-.3c.1,.1,.1,.3,.3,.3h0Zm9,.1h0l.2,.2c.1,.1,.2,.1,.2-.1l-.4-.1Zm3.7-.4h.1c.1-.1,.1-.2-.1-.3v.3ZM1.3,9.24h-.1c0,.1-.1,.2-.1,.2l.1,.1s.1,0,.1-.1v-.2ZM69.9,1.94c-.2,0-.3-.1-.4,0,.1,.2,.3,.2,.4,0ZM20.7,1.24l-.1-.1c-.1,0-.1,.1-.1,.1l.1,.1c0-.1,.1-.1,.1-.1Zm5.5,29.9h-.4l.2,.3,.2-.3ZM70.6,.44l-.3,.1q.2,.1,.3-.1ZM11.7,1.14h0c-.1,.1-.2,.2,0,.3v-.3ZM31.4,31.14h.3v-.1h-.2c-.1,0-.1,.1-.1,.1ZM7.6,1.84h0q.2-.1,0-.2v.2Zm17.2,30.9h.1l-.1-.3c-.2,.2-.1,.3,0,.3ZM69,1.84h0c.1,.1,.2,.2,.4,.1l-.4-.1Zm3.6,0h0l-.2-.2c-.1,.2,.1,.2,.2,.2h0ZM25.5,31.74q0-.2-.3-.2l.3,.2ZM70.6,1.54c-.2,0-.3,0-.3,.1,.1,0,.3,0,.3-.1h0Zm-1.6,0h-.3l.1,.1,.2-.1Zm4.2-.2l.2,.2,.1-.1c0-.1-.1-.1-.3-.1h0ZM19.3,30.94c-.1,0-.1-.1-.2-.1l-.1,.1,.1,.1c.1,0,.1-.1,.2-.1Zm7.4-.2c-.2,0-.2,.1-.1,.2,.1,0,.1-.1,.1-.2ZM9.9,2.34l.2-.1q-.2-.1-.2,.1ZM29.5,31.14q.2,.1,.3-.1l-.3,.1ZM73.5,1.84c.1,.1,.2,.1,.3,0h-.3Zm-4-.3q0,.2,.2,.2l-.2-.2ZM20,31.84c-.1,.1,0,.2,.2,.2l-.2-.2Zm10.9-.7s.1-.1,0,0c.1-.1,0-.2,0-.2l-.1,.1s0,.1,.1,.1Zm-1.8,.7c.1,0,.1-.1,0-.2h-.1q-.1,.1,.1,.2h0Zm-9.6,0h0l-.2-.2h-.1l.3,.2ZM67.3,1.34h0c0-.1-.1-.2-.2-.1l.2,.1ZM28.5,31.34c-.1,0-.1-.1-.1,0l-.1,.1,.1,.1c0-.1,.1-.1,.1-.2ZM68.2,1.84h0c.1,0,.1-.1,.1-.1l-.1-.1h0v.2Zm2.4-.6h0l-.2-.1h0l.2,.1Zm2.1-.7v.1l.1,.1s.1,0,.1-.1-.2,0-.2-.1ZM21.1,32.64c.1,0,.2,0,.2-.2l-.2,.2ZM6.8,2.54q-.1,0-.2-.1h-.1s0,.1,.1,.1h.2Zm-.4,28.3s0-.1,0,0c.1-.1,0-.1,0-.1h-.1s0,.1,.1,.1Zm19.9,1.8l-.1,.1,.1,.1q.1-.1,0-.2h0Zm-8-1.4h0l-.1-.2h-.1l.2,.2ZM66.5,1.94h0q0,.1,.1,.1h0q0-.1-.1-.1ZM31.1,31.04s0,.1,0,0c-.1,.1,0,.1,0,.1q.1,0,0-.1c.1,.1,.1,0,0,0Zm-11.5,.3h0l-.1-.2h0l.1,.2Zm11-.1h.1l-.1-.1h-.1l.1,.1Zm-4.2,.2h.1v-.2h-.1v.2Zm-.9,.8q.1,0,0,0c.1-.1,.1-.2,0-.2h-.1c.1,.1,.1,.2,.1,.2h0Zm-5.6-.8h0v.2h.1l-.1-.2ZM73.7,1.44c.1,0,.1,.1,.1,0,0,0,.1,0,.1-.1h-.1c0,.1-.1,.1-.1,.1ZM3.3,4.64s-.1,0,0,0h-.1s0,.1,.1,0h0ZM68.4,1.24s0,.1,0,0q0,.1,0,0,.1,.1,0,0c.1,.1,0,0,0,0Zm-.4,.1h0c.1-.1,0-.1,0-.1,0,0-.1,0,0,.1q-.1,0,0,0h0Zm-45,.4h0q0-.1,0,0Zm42.3-.7h.2v-.1q-.1,.1-.2,.1ZM27.4,32.34q0-.1,0,0l.1-.1h-.1q-.1,0,0,.1ZM71,.94h-.1c-.1,.1,0,.1,.1,0-.1,.1,0,.1,0,0ZM24.8,32.34h0q-.1-.1-.2,0v.1c.1-.1,.2-.1,.2-.1Zm-2.1-1h0v.1h.1l-.1-.1ZM70.1,.84q.1-.1,0,0c.1-.1,0-.1,0-.1v.1q0-.1,0,0Zm-3.4,1l.1-.1h-.2c.1,0,.1,.1,.1,.1ZM8.3,2.84s0-.1,0,0v-.1q-.1,0,0,.1-.1,0,0,0ZM69.8,.44q0-.1,0,0v-.1q-.1,0,0,.1-.1-.1,0,0Z"/><path class="cls-1" d="M124.2,14.74c.2,.1,.2,.3,.2,.4v.4l-.4-.1v.1l.2,.2c.2,.1,.2,.2,.2,.4v4.5h-.3l.1,.2,.2-.1v1.6l-.4,.1c.1,.1,.2,.1,.3,.2,.1,.1,.2,.1,.1,.3v.9l-.4,.1,.4,.2c0,.5-.1,.9-.3,1.4-.1,.2-.1,.4-.2,.6-.2,.7-.5,1.4-.9,1.9-.7,1-1.6,1.9-2.7,2.6-.4,.2-.8,.5-1.2,.7l-.1-.2c-.1,.4-.4,.5-.7,.6,0,0-.1,0-.1-.1s.2-.2,.1-.4c-.1,.2-.2,.3-.1,.4-.5,.4-1.2,.6-1.8,.7-.9,.2-1.9,.3-2.8,.5-.5,.1-.9,.1-1.4,.1h-11.2v-.1c.1,0,.2-.1,.4-.2,.1-.1,.1-.2,0-.3s-.2-.1-.3,0c-.1,.1-.2,.2-.1,.3,0,.1,.1,.1,.2,.2-.3,.1-.5,.1-.8,.1-.1-.1,.2-.3-.1-.4-.1,0-.1-.1-.3-.1,.2,.2,.1,.3,0,.5H48c-.2,0-.4,0-.6-.1-.1,0-.2-.1-.3,0-.2,.1-.5,.2-.8,.1h-5.2v-.2c-.1-.1-.3-.1-.5,0l.3-.6,.2,.1c0-.2-.2-.4,0-.6-.3,0-.4,0-.5,.2-.1,.3-.2,.6-.3,.8,0,0,0,.1-.1,.1-.3-.1-.6-.2-.9,0,0-.2,.1-.3,.3-.3h.4q.3,0,.3-.3h-.3v-.1h0c.1-.1,.2-.2,.1-.3-.1,0-.1,.1-.2,.1,0,0-.1,.1-.1,.2h0c-.1,.1-.2,.2-.4,.2-.1,0-.1,.1-.2,.1-.1,.1-.2,.3-.3,.4h-.4l-.1-.2-.2,.2-.2-.1c-.2,.1-.4,.2-.6,0-.2,.1-.4,.1-.6,.1-.1-.2,.1-.3,.2-.5-.2,0-.2,.1-.3,.2h0l.1-.3h-.4c-.2-.1-.1-.3,0-.5,0-.1,.2-.3,.1-.4-.1-.2,0-.3,.1-.4,.1,0,.2,.1,.3,.1s.1-.1,.2-.2c.2-.1,.4-.1,.6,0l-.3,.1,.2,.3q-.2,0-.2-.1c0-.1-.2-.1-.3-.1h0c-.1,0-.1,.1-.1,.2,.1,.2-.1,.3-.2,.5l.2-.3c-.2,.1-.3,.3-.3,.5l.3-.1,.2,.1,.2-.3c.1,.1,.2,.2,.1,.3-.1,.1-.1,.2-.1,.3h.6l.3-.3v-.2l.1-.1c.1,.4-.1,.7-.5,.8l.1,.3h.4v-.4l.3,.1c.1-.1,.2-.1,.3-.2,0,.1,.1,.2,.3,.2l.1-.1-.5-.1q0-.1,.1-.1c.2,0,.4-.1,.5-.2-.2,0-.3-.3-.6-.1l.5-1,.7,.1v-.1c.4,0,.7-.1,1.1,0v.5c.2-.1,.3-.2,.5-.3q0,.1,.2,.1l-.2-.1c.1-.2,.3-.1,.5-.1v.4c.4-.1,.3-.4,.4-.5h1.1c.2,0,.4,0,.7,.1h.1c.3-.1,.7-.1,1-.1h41.3c.2,0,.5,0,.7,.2,.1-.1,.3-.2,.4-.2h5.8c.1,.1,.2,.2,.3,.2s.2-.1,.3-.2h2.4c.4,0,.8,.1,1.2,.1h.3c.2-.1,.5-.1,.7-.1h4.3c.2,0,.4,0,.6,.2,.1-.2,.3-.2,.5-.2h3.4c.1,0,.3,0,.4,.1,0,.1,.2,.1,.3,0,.1-.1,.2-.1,.3-.1h2c1.2,0,2.5,0,3.7-.2,2-.3,3.8-1.2,5.3-2.5,.6-.6,1.1-1.2,1.4-2,.4-.8,.6-1.7,.5-2.5v-.8c0-.1,.1-.2,.1-.3-.2,0-.1-.1-.1-.2v-1.5c0-.3,.1-.5,.1-.8,0-.2,0-.4-.1-.6,0-.1,0-.3,.2-.3h0q-.2-.1-.2-.3v-1.6c0-.2,0-.4,.2-.5q.1-.1-.1-.2v-.3h.2c.1-.2,.1-.4,0-.5l-.2,.4v-2.7c0-.1,.1-.2,.1-.3s.2-.1,.2-.1h.1v-.3c0-.1,0-.2,.1-.2q.1-.1,.1-.2c-.1-.1,.1-.2,.1-.3,.3-.3,.5-.7,.5-1.1,0-.2,.1-.4,.2-.6,.1-.2,.2-.4,.4-.5v.4h.1c.1-.2,.3-.5,.4-.7s.2-.2,.4,0l-.2,.1h.3c0,.4,0,.9-.1,1.3v.8c0,.4-.1,.8-.1,1.1v.1c.2,.1,.2,.3,.2,.4,.1,.3,0,.6-.2,.9-.1,.1-.1,.2-.1,.4-.1,.2,0,.2,0,.2h0ZM42,31.54l-.1,.2,.3-.1-.2-.1v-.2l-.3,.2h.3Zm-3.1,1l-.2-.1c0,.1,.1,.1,.2,.1v.2c.2-.1,.3-.2,.2-.3,0,.1-.1,.1-.2,.1h0Zm.7-1.5c.2,.3-.3,.3-.2,.4h.5v.3c.2-.2,.3-.4,.5-.5,.1,0,.2,.1,.3,.1s.2-.1,.2-.3c-.2-.1-.3,.1-.5,0s-.2,.2-.4,.1l.1-.2-.5,.1Zm59.2,1.4c-.1-.1-.3-.2-.4-.3-.2-.1-.4-.1-.4,0s0,.2,.1,.3,.2,.1,.3,.1c.1-.1,.2-.1,.3,0l.1-.1h0Zm24.5-22.2q-.1,.1-.1,.2c0,.1,0,.2,.1,.4,0,.1-.2,.2-.2,.3,0,.2-.1,.3-.3,.4,.4,0,.4-.3,.6-.4,0-.1-.1-.2-.1-.3,.1-.2,.1-.4,0-.6Zm.4,6.1c.3,.1,.1,.3,.2,.4,.1,0,.2,0,.2-.1-.1-.1,0-.3,.1-.4v-.2c-.2,.1-.5,.2-.5,.3h0Zm.6,5.4c-.2,.2-.6,.1-.6,.3l.5,.1,.1-.4Zm-.4-11.9h0c-.1,.1-.1,.2-.1,.2l.3,.3h.2v-.1l-.4-.4h0Zm-28.1,22.3c.1,0,.2-.1,.2-.2h0c0-.1,0-.2-.2-.2-.1,0-.2,.1-.3,.2,.1,.1,.2,.2,.3,.2Zm-20.6-.6c.1-.2,.1-.4,0-.6-.2,.2-.2,.3,0,.6Zm26.6-.4c-.1-.1-.2-.1-.3-.1s-.3,.1-.3,.2,.1,.1,.2,.1c.1-.1,.2-.2,.4-.2Zm-3.2-.1c.1,0,.2,.1,.2,.1,.1,0,.2-.1,.2-.1,0-.1-.1-.1-.2-.1,0-.1-.2-.1-.2,.1Zm23.6-12c.2-.2,.2-.4,.2-.6-.1,.1-.2,.3-.2,.6Zm.7-6.9c.4-.1,.5-.2,.3-.4l-.3,.4Zm.9,0h0c0,.2,.1,.4,.4,.4v-.1c-.2-.1-.3-.2-.4-.3Zm-23.2,18.6q-.1,.1-.1,.2l.1,.1c.1,0,.2,0,.2-.1,0-.1-.1-.1-.2-.2Zm23.1-16.8l.1,.5q.2-.3-.1-.5Zm-.9-.3h0l.5,.3c-.1-.2-.3-.2-.5-.3h0Zm1.1,4.9l.3-.1-.2-.2h-.1v.3Zm-1.3,.8c.2,0,.4,0,.6-.1-.2-.1-.4,0-.6,.1Zm-22.6,12.6q.1,.2,.3,.1l-.3-.1Zm22.5-4.5q.2-.1,.2-.2v-.1h-.1l-.1,.3Zm-27.9,4.4q-.1,.1-.1,.2s.1,.1,.2,.1l.1-.1c-.1-.1-.2-.1-.2-.2Zm27.8-19.3c.2-.1,.1-.2,0-.4-.2,.2,.1,.3,0,.4Zm.7,9.2h.1l.2-.4h-.1l-.2,.4Zm-.9-2.5c-.2,0-.2,.1-.2,.4,.2,0,.1-.2,.2-.4Zm0,5.7h0l-.2,.4h.1l.1-.4Zm-24.2,6.5c-.1,0-.1-.1-.1-.1,0,0-.1,0-.1,.1l.1,.1,.1-.1Zm24.2-10c-.2,0-.2,.1-.2,.2h.1c.1,0,.1-.1,.1-.2h0Zm-17.4,9.8l.1-.1-.1-.1-.1,.1s0,0,.1,.1h0Zm17.6-16.8q.1-.2,0-.3v.3Zm1.7,10.2h-.3q.2,.1,.3,0h0Zm-10.9,8c-.1,0-.1-.1-.2-.1l-.1,.1,.1,.1,.2-.1Zm-69.1-.7h0l.3-.2h-.1l-.2,.2ZM121.9,13.74h.1v-.3h-.1v.3ZM42.3,31.94v.2h.1l.2-.2h-.3Zm50-.9l-.2-.1-.1,.1,.1,.1s.1-.1,.2-.1h0Zm-50.5,1c-.1,.1-.2,.1-.2,.2,.2,0,.2-.1,.2-.2h0ZM122.8,14.84q.1-.2,0-.3v.3Zm.8,9.2h0l.2,.1v-.1h-.2Zm-1.9-9.8h.1v-.3h-.1v.3Zm-19.7,18.4l-.1-.1-.1,.1s0,.1,.1,.1l.1-.1Zm.4-1.7l-.3,.1c.2,.1,.3,0,.3-.1Zm-8.6,1.6h-.2s-.1,0-.1,.1l.1,.1q.2-.1,.2-.2Zm26.5-4.9h0l-.1,.2h.1v-.2Zm3.6-7c-.1,0-.1-.1-.1-.1h-.1l.1,.1c-.1,.1,0,0,.1,0ZM46.9,31.64q.2-.1,.2-.2l-.2,.2Zm-2.5,.7h0q-.2,0-.2,.1l.2-.1ZM123.5,11.34h-.1l.1,.1h.1l-.1-.1Zm-38.3,19.9s-.1,0,0,0c-.1-.1-.1,0-.2,0h.2Zm-41.3,1.4c.1,.1,.2,.2,.3,0h-.3Zm57.8-1.1h0l.1-.2h-.1v.2Zm-8.4,.4q-.1,0,0,0c-.1,.1-.1,.2,0,.2,0,0,.1,0,.1-.1l-.1-.1Zm-56.2,.1h0l.2,.2c0-.2-.2-.2-.2-.2h0Zm64.2-.2l.1-.1-.1-.1v.2q0-.1,0,0h0Zm19.2-3.7q-.2,.1-.1,.3l.1-.3Zm2.8-12.8c-.2,0-.3,.1-.2,.2l.2-.2Zm.5,8.4h.2v-.1l-.2,.1Zm-.1-.4l-.1-.1h-.1s.1,0,.1,.1h.1Zm-21.1,7.8h0v0h0Zm-6,.2h0c-.1-.1-.2,0-.2,0,0,0,0,.1,.1,.1,0,0,.1,0,.1-.1h0Zm26.3-17.1q0-.2-.2-.1l.2,.1Zm.8-1.4h0q0,.1,0,0h0ZM44.4,32.04h-.3s0,.1,.1,.1l.2-.1Zm61,.2h0q-.1,0,0,0h0Zm-12.9,.3s-.1,0,0,0h-.1q0,.1,.1,0h0Zm31.4-8.1s-.1,0,0,0h0Z"/><path class="cls-1" d="M87.2,2.24c.2-.3,.6-.4,.7-.8,0-.1,.2-.2,.3-.2l-.2-.4,.2-.1c-.2-.2-.2-.3,.1-.4l-.1-.1c.1,0,.1-.1,.2-.1h10.8l.3,.4c.2-.1,.1-.3,.2-.4h12.8c.9,0,1.8,.1,2.7,.3,.4,.1,.7,.1,1,.2l-.3,.6s0,.1,.1,.1c.2-.1,.4-.3,.5-.6,.2,0,.2,.1,.2,.2s0,.2,.1,.2h.2l-.1,.4c.3-.1,.3-.4,.6-.5,0,.1,0,.3-.1,.4-.1,.2-.1,.3-.3,.4-.2,.1,0,.3-.2,.4q0,.4-.4,.8c-.6-.2-1.3-.3-1.9-.5-.7-.2-1.5-.2-2.2-.2h-20.4c-.1-.3,.2-.6-.2-.9-.2,.1-.3,.2-.2,.4v.5h-1.3c-.1,0-.1-.1-.2-.1-.1,.1-.3,.2-.5,.1h-1.1c-.2,0-.3,0-.5-.1-.1,.1-.3,.1-.6,.1-.1,0-.1-.1-.2-.1h0Zm6.7-.2h.1v-.3l.3-.1c-.1-.2-.2-.4-.2-.7l.4-.1c-.2-.2-.4-.2-.6-.2s-.2,.1-.2,.3v.4c0,.3,0,.6,.2,.7h0Zm-3.4-1.5c0,.1-.1,.3-.1,.4,0,0,0,.1,.1,.1h.1c0-.2,.1-.4-.1-.5Zm4.4,.1h-.1c-.1,.2-.1,.4,0,.5h.2l-.1-.5Zm.4,1.5h0q.1-.1,.1-.2t-.1-.2h-.1v.2c0,.1,0,.2,.1,.2Zm20.9-.6q-.2,.2-.2,.4c.2-.1,.3-.2,.2-.4h0Zm-16.9,.3c.1,0,.1-.1,.1-.1l-.1-.1-.1,.1,.1,.1Zm-10.2-1.4c.1,.1,.3,.2,.4,.1-.1-.1-.2-.2-.4-.1Zm1.4,1.2c-.2,.1-.2,.2,0,.3v-.3Zm11.6-1.3c-.1-.1-.2-.1-.3,0v.1c.1,0,.2,0,.3-.1Zm-12.4,1.4q.1-.1,0-.2h-.1c-.1,.1-.1,.2,.1,.2Zm8.1-1c0-.1-.1-.1-.2-.1h0v.1h.2Zm-6.4,.4h-.2s-.1,0-.1,.1l.1,.1c.1-.1,.1-.2,.2-.2Zm-2.7,.5h0l-.1-.1h0s0,.1,.1,.1Zm2.7-1.3h0l-.2-.1v.1h.2Z"/><path class="cls-1" d="M122.3,7.94c.1,.2,0,.5-.2,.6-.1,0-.1,.2-.1,.3,.2-.1,.5-.1,.7-.1v.1c-.3,.1-.5,.4-.6,.7,0,.2-.2,.4-.4,.5-.1-.1,0-.3,.1-.4,.2-.1,.2-.3,.2-.5l-.3,.1v-.1c0-.8-.2-1.5-.5-2.2-.2-.4-.5-.8-.7-1.2-.2-.2-.2-.4,0-.6l.2-.2v-.2h.2l.4-1.6c.1,0,.2,.1,.3,.2l-.2,.1,.2,.2,.3-.2c.4,.3,.7,.7,1,1.1-.1,0-.3,0-.2,.2l.2-.2c.2,.1,.1,.3,.2,.4h.1c-.1,.1,.1,.3-.1,.4-.1,.1,0,.3-.1,.4,0,.1-.1,.2-.2,.2l-.1,.1v.6s.1,.1,.2,.1q.2,0,.4,.2l-.5,.3c-.1,.5-.2,.5-.5,.7q0-.1,0,0h0Zm-.8-4h0c-.2,.2-.3,.5-.1,.7h.1c-.1,.1-.2,.1-.1,.3,.1,.1,0,.2-.2,.2-.1,0-.1,.1-.1,.1v.3h0l.1-.2c.2,.1,0,.3,.3,.4,0-.2,.1-.3,.1-.5,.1-.2,.1-.3,.2-.5l-.2-.2-.2,.1c.1-.2,.1-.5,.1-.7l.2,.4c.1-.1,.1-.2,.1-.3,0-.1-.2-.2-.3-.1Zm.5,3.1c.2-.7,.3-.7,0-.9-.1,.3-.2,.5-.2,.7-.1,.1,0,.2,.2,.2Zm-.9-2.2l-.3,.5c.2,0,.3-.2,.3-.5h0Zm1.2,2.8l.3-.4c-.4,0-.4,.1-.3,.4h0Zm-1-.6l.3,.1q0-.2-.2-.2l-.1,.1Zm.9,.1h0l.1-.3c-.2,.1-.2,.2-.1,.3h0Zm-.1,.7q-.2,.1-.1,.2l.1-.2Zm.5-2.8q-.2,.1-.2,.2l.2-.2Zm-.8-.8c.1-.1,.1-.2,0-.3v.3Zm-.1,4.2c.2,0,.2-.1,.2-.1v-.1l-.2,.2Zm0-.3h0q-.1,0-.1,.1h.1v-.1h0Z"/><path class="cls-1" d="M119.5,4.04l-.1,.7-.5-.4c.1-.1,.1-.3,.1-.4s.1-.2-.2-.2c.1-.2,.2-.3,.2-.5,0,0,0-.1-.1-.2h-.1s-.1,.1-.1,.2,0,.3-.1,.4l.1,.1-.1,.5c-.2-.1-.4-.3-.6-.4-.2-.1-.4-.3-.5-.4-.2-.1-.4-.2-.7-.3,0-.1,.1-.2,.1-.3,.1-.2,.1-.3,0-.5v-.2c.2-.3,.4-.6,.6-1l.2-.2,.1,.4h.1l.2-.3c.4,.2,.9,.4,1.3,.6,0,.1-.1,.1-.2,.2q-.2,.1,0,.3v.1h.1c.2-.1,0-.4,.2-.5,.2,.1,.2,.2,.1,.4s-.1,.4-.2,.6-.1,.3-.2,.5c-.1,.1,0,.2,.1,.2h0c-.1,.2-.3,.3-.1,.5l.3,.1Zm-1.8-2.1h0l.2-.2h-.1l-.1,.2Z"/><path class="cls-1" d="M83.1,2.14c.2-.2,.3-.5,.2-.8h0c.2-.1,.4,0,.6,0h0l-.1,.2c.1,0,.2,.1,.2,.2s-.1,.1-.1,.2-.1,.1-.1,.2q.6,0,.8-.2c0-.2-.1-.2-.4-.1,.2-.2,.6-.4,.3-.7,.3-.1,.5,0,.5,.1-.1,.2,.1,.2,.2,.4,.1-.1,.2-.1,.2-.2s0-.2-.1-.3c-.3,0-.3-.2-.2-.3h.2l-.1-.2,.3-.3-.6-.1v-.1c.2-.1,.3,0,.4,.1l.2-.1h.1v.4c0,.2,0,.3-.2,.4-.1,0-.1,.2-.1,.2,.2,.2,.1,.4,.1,.7q0,.1-.1,.2c0,.1,0,.2,.3,.2,.2-.3,0-.6,.1-.9,.1-.3,.1-.6,.2-.9h.1c-.1,.1-.1,.3-.1,.4s-.1,.2-.1,.3c.1,.2,.2,.4,.1,.6v.1c0,.1,.1,.1,.1,.2l.4-.1c0-.1-.1-.1-.1-.2,.2-.2,.2-.4,.2-.7,.1-.2,.1-.5,.1-.7,.1-.1,.2-.2,.4-.2h.8l.1,.4c-.5,.2-.4,.6-.4,1-.1,0-.4,0-.3,.2,0,0-.1,.1-.3,.1,.2,0,.3,.2,.3,.3h0c-.2,.1-.3,.2-.5,.1-.1,0-.2-.1-.3-.2l-.1,.2h-1.6v-.1q.2,0,.2-.2c-.1,.1-.3,.1-.2,.2h-.2c-.1,.1-.2,.1-.3,.1h-1q-.2,0-.3-.2l.2,.1q.1,.1,.3,0h-.3Zm3.7-.6c-.1,0-.2-.1-.2,0s0,.1,.1,.1c.2,0,.1-.1,.1-.1q.2,0,.2-.2l-.2,.2Zm.1-1h0v-.2h-.1l.1,.2Z"/><path class="cls-1" d="M119.4,3.74l.3-.3c-.2-.3,.1-.4,.2-.7,.1-.1,.2-.3,.3-.4l.3,.2-.5,.5h.1l.4-.4c.1,0,.1,.1,.1,.2s-.1,.2-.1,.2c0,.1,0,.2,.2,.3l.2-.4c.1,.1,0,.4-.3,.7,0,.4,0,.8-.2,1.2v-.5h-.1l-.3,.6c0-.1-.1-.1-.1-.2,.1-.2,.1-.4,.3-.5,.2-.3,.2-.6,.1-.9-.2,.1-.3,.3-.3,.5s0,.4-.1,.6c0,.1-.1,.3-.2,.4-.2-.1-.1-.2-.1-.2,.1-.2,.2-.3,.1-.6q0-.1,.1-.2l-.2,.1c-.1,0-.1-.2-.2-.2h0Z"/><path class="cls-1" d="M122.7,9.94c-.1-.3,.2-.5,.4-.7l-.1-.1-.5,.2c.3-.5,.5-1,.6-1.6q.1,.1,.1,.4c0,.1-.2,.2,.1,.4,0-.1,.1-.2,.1-.4v-.4l.3-.3c0,.1,0,.2-.1,.4,0,.1-.2,.2,0,.3l-.1,.2c-.1,.1-.2,.4,0,.5l.1,.1c.1,.1,0,.2-.2,.2v.3c-.1,0-.2,0-.3,.1l-.2,.2c-.1,0-.2,.1-.2,.2h0Z"/><path class="cls-1" d="M122.7,9.94c-.1,.2-.1,.3-.2,.5-.1,.1-.2,.3-.1,.5,0,.1,0,.2-.1,.3-.1,.2-.2,.4-.4,.7-.1,.1-.1,.2-.2,.2-.1-.2-.2-.4,0-.6,.1-.1,.1-.2,.1-.4l-.2,.1c-.1-.1,0-.6,.1-.8,.2,0,.1,.1,.1,.2v.3c.2,0,.3-.2,.3-.3s.1-.3,.2-.4c.1-.1,.2-.2,.3-.4,0,0,0,.1,.1,.1h0Z"/><path class="cls-1" d="M34.4,31.14c-.1,0-.1,.2-.3,.1l-.1,.1c-.1,.2-.2,.3-.2,.5,0,0,0,.1-.1,.1-.1-.2-.3-.5,.1-.6,0-.2-.1-.2-.3-.2-.1,0-.2-.1-.4,0l.2-.3h.3l.1,.2c.2,0,.4-.1,.5-.3l.2,.4h0Z"/><path class="cls-1" d="M83.8,1.34c0-.1,0-.2-.1-.3q-.3-.1-.2-.4c.2,0,.3-.1,.5-.1,0,0,0-.1,.1-.3l-.3,.1V.14l.5,.1c-.2,.2,0,.3-.2,.4,.1,.2-.2,.3-.1,.5,0,.1,0,.2-.2,.2h0Z"/><path class="cls-1" d="M31.7,32.54l-.2,.1-.1-.1c-.1-.1-.2-.2,0-.3l.3,.1,.1-.5h.2l-.2,.5c.1,.1,.3,.1,.1,.2,0,.2-.1,.1-.2,0Z"/><path class="cls-1" d="M74.2,2.14c.3,0,.5-.1,.8-.1,.1,0,.2,.1,.3,.1l.3-.2,.1,.2c-.4,.2-.6,0-1-.1-.1,.2-.3,.2-.5,.2,.1,0,.1-.1,0-.1h0Z"/><path class="cls-1" d="M124.2,8.44c.1,.1,.1,.2,.1,.2-.2,.2-.1,.3,0,.5,0,0,0,.1-.1,.1l-.2-.3c-.1,0,0,.3-.3,.2,0-.3,.3-.5,.5-.7Z"/><path class="cls-1" d="M33.5,31.94c-.2,.2-.3,.4-.1,.6l-.2,.2h0v-.2c-.2,.1-.1,.3-.3,.2,.1-.1,.1-.3,.2-.4,.1-.2,.1-.4,.4-.4Z"/><path class="cls-1" d="M76.2,1.94c.1-.1,.1-.2,.1-.2,.2,0,.3-.2,.4-.3,0-.1,.1-.1,.2-.1v.2q.1,.2-.1,.2c-.2,.1-.3,.2-.6,.2Z"/><path class="cls-1" d="M32.7,31.34c-.2,.1-.4,.1-.2,.3-.1,0-.1,.1-.2,.1l-.1-.5c.1,0,.4-.2,.5,.1Z"/><path class="cls-1" d="M39.1,30.84c-.5,0-.3,.3-.4,.5-.2-.2,.1-.4,0-.6l.4,.1h0Z"/><path class="cls-1" d="M119.4,3.74c.2,.1,.2,.2,.1,.3h0l-.2,.2c-.3-.2,0-.3,.1-.5Z"/><path class="cls-1" d="M123,6.54c-.2-.2-.1-.4,0-.6,.1,.2,.1,.3,0,.6Z"/><path class="cls-1" d="M83.1,1.54h-.3l-.1-.1-.2,.1v-.2c.3-.1,.5,0,.6,.2h0Z"/><path class="cls-1" d="M76.5,.84q.2-.1,.2-.4,.1,0,.1,.1v.3c0,.1-.1,.1-.3,0Z"/><path class="cls-1" d="M38.2,31.14h-.3c0-.1,.1-.1,.1-.2,.1-.1,.2-.2,.5-.1-.2,0-.3,.1-.3,.3Z"/><path class="cls-1" d="M30.3,32.14c-.1-.1-.1-.3,0-.4h.3c-.1,.2-.2,.3-.3,.4h0Z"/><path class="cls-1" d="M76.2,.74c0-.2,.2-.3-.1-.5,.1-.1,.2,0,.3,0v.4c-.1,.1-.2,.1-.2,.1h0Z"/><path class="cls-1" d="M27.8,31.04l-.2-.3,.4-.1-.2,.4Z"/><path class="cls-1" d="M38,31.34c0,.1,.2,.3,0,.4-.1-.1-.2-.3,0-.4Z"/><path class="cls-1" d="M37,32.54l-.3,.2v-.3c.1-.1,.2,.1,.3,.1h0Z"/><path class="cls-1" d="M34.3,32.44l-.1-.5h0l.1,.5h0Z"/><path class="cls-1" d="M76.3,2.14c-.3,.1-.4,0-.5-.1,.2,0,.3,.1,.5,.1Z"/><path class="cls-1" d="M75.6,1.54l-.1-.1,.2-.1c.2,0,0,.1-.1,.2Z"/><path class="cls-1" d="M75.9,1.84l.1-.4,.1,.3-.2,.1Z"/><path class="cls-1" d="M122.3,7.94q.4,0,.2,.3c-.1-.1,0-.3-.2-.3h0Z"/><path class="cls-1" d="M83,1.14c-.1,0-.3,.1-.4-.1,.1,0,.2,0,.4,.1h0Z"/><path class="cls-1" d="M123.3,5.54l.2,.4q-.3-.2-.2-.4Z"/><path class="cls-1" d="M32.8,30.74h.2l-.1,.1v.1h-.1v-.2Z"/><path class="cls-1" d="M31.9,30.94l.2-.3q.1,.3-.2,.3Z"/><path class="cls-1" d="M36.1,31.84l-.2,.3c-.1-.2-.1-.3,.2-.3Z"/><path class="cls-1" d="M83.3,1.34c-.1-.1-.2-.2-.3-.2h.4q-.1,.1-.1,.2h0Z"/><path class="cls-1" d="M76.2,1.34l.3-.3c-.1,.1,0,.2-.3,.3Z"/><path class="cls-1" d="M74.6,1.74l-.1,.2q-.1-.1-.1-.2c0-.1,.1,0,.2,0Z"/><path class="cls-1" d="M123.6,8.64l.1-.3q.1,.1-.1,.3Z"/><path class="cls-1" d="M35.7,31.04l.2-.2c.1,.1,0,.1-.2,.2h0Z"/><path class="cls-1" d="M35.6,30.94l-.1,.2c-.1-.1-.1-.2,.1-.2Z"/><path class="cls-1" d="M76.2,.74q0,.2-.4,.3c.2-.2,.3-.2,.4-.3h0Z"/><path class="cls-1" d="M34.4,31.14h.3l-.1,.2-.2-.2h0Z"/><path class="cls-1" d="M36.4,31.34h-.3v-.2l.3,.2Z"/><path class="cls-1" d="M35.8,32.64l-.2,.2c0-.1,0-.2,.2-.2Z"/><path class="cls-1" d="M75.1,1.74c-.2-.1-.1-.2-.1-.2l.1,.2Z"/><path class="cls-1" d="M123,5.74l-.1-.1h.1q.1,0,0,.1h0Z"/><path class="cls-1" d="M124.2,14.84q0-.1,.2-.1-.1,0-.2,.1h0Z"/><path class="cls-1" d="M35,30.84l-.3,.1,.1-.1q.1-.1,.2,0h0Z"/><path class="cls-1" d="M73,.24q.1,0,0,0c.1-.1,.2,0,.2,0h-.2Z"/><path class="cls-1" d="M40.3,32.04c-.1,0-.1,.2-.2,0h0s.1-.1,.2,0h0Z"/><path class="cls-1" d="M35.3,31.54c.1,0,.1,.1,0,0v0h0Z"/><path class="cls-1" d="M36.3,32.64v.2h-.1l.1-.2h0Z"/><path class="cls-1" d="M15.3,1.14c-.1,.1,.1,.3-.1,.4-.2-.1-.2-.3-.3-.5V.34c.1-.1,.2-.1,.3,0h0c.1,.1,.1,.2,.1,.2,.1,.2,.1,.4,.2,.6h-.2Z"/><path class="cls-1" d="M29.1,31.04c.3,.2,.6,.4,.6,.7,0,.1,.1,.1,.1,.2-.1,.1-.4,0-.4,.2q-.2-.2,0-.4c-.3-.2-.2-.5-.3-.7Z"/><path class="cls-2" d="M2,11.64c-.1-.2-.1-.5,0-.8,0-.1,.1-.1,.2-.2,.2,.3,.1,.6-.2,1Z"/><path class="cls-1" d="M69.8,1.14h-.2c-.1-.1-.1-.2-.2-.3,.1-.1,.2-.1,.3-.1,.1,.1,.3,.1,.3,.2,.1,.2-.1,.2-.2,.2h0Z"/><path class="cls-1" d="M70.8,1.94l.2-.1-.1-.2h.5c.2,0,.2,.1,.3,.2-.2,0-.3,0-.5,.1-.2,.1-.3,0-.4,0h0Z"/><path class="cls-1" d="M68.4,.24c.3,.1,.3,.2,.2,.3-.1,.1-.2,.1-.3,.1-.2,0-.1-.2,.1-.4Z"/><path class="cls-1" d="M26.3,32.34v.2c-.2,0-.4-.1-.6-.3-.1-.1,0-.2,.2-.3,.2,.1,.1,.3,.4,.4h0Z"/><path class="cls-1" d="M21,32.34l.1-.4c.2,0,.3,.1,.4,.2l-.4,.2h-.1Z"/><path class="cls-1" d="M68.7,2.24c-.2,0-.2-.1-.2-.2h-.3l.3-.1c.2,0,.4,.1,.2,.3Z"/><path class="cls-1" d="M68.5,.84c.1,0,.2-.1,.3-.1s.2,0,.2,.1v.1c-.1,0-.2,.1-.3,.1l-.2-.2Z"/><path class="cls-1" d="M1.8,12.14v.4s-.1,.1-.2,.1l-.1-.1c.1-.2,.2-.3,.3-.4h0Z"/><path class="cls-1" d="M28.5,31.94c.1,.1,.2,.1,.4,.2,.2,.1,.1,.2,0,.3-.2-.2-.2-.4-.4-.5h0Z"/><path class="cls-1" d="M21.3,31.14q.3,.1,.4,.3c-.3,.1-.3-.1-.4-.3Z"/><path class="cls-1" d="M17.3,32.04c-.2,0-.3-.2-.4-.3,.3,0,.4,.1,.4,.3Z"/><path class="cls-1" d="M16.6,1.54c-.2,0-.2-.1-.2-.1,0-.1,0-.2,.1-.2l.1,.1v.2Z"/><path class="cls-1" d="M24.2,31.44c.1-.1,.3-.1,.3,0s0,.1-.1,.2c-.1,0-.2-.1-.2-.2Z"/><path class="cls-1" d="M73.3,2.14l-.5-.1,.5-.2v.3Z"/><path class="cls-1" d="M73.9,1.14l-.2-.4c.3,.1,.4,.2,.2,.4Z"/><path class="cls-1" d="M69.2,1.44c-.1,0-.2,0-.3-.1,0,0-.1-.1,0-.1q.1-.1,.2-.1c.1,.1,.1,.2,.1,.3h0Z"/><path class="cls-1" d="M7.1,2.24c-.1-.2,0-.3,.1-.4h0c.2,.2,.2,.3-.1,.4Z"/><path class="cls-1" d="M17.4,1.94l-.2,.1-.1-.1,.1-.1,.2,.1Z"/><path class="cls-1" d="M14.4,31.74c-.2,0-.2-.2-.3-.3l.3,.3h0Z"/><path class="cls-1" d="M23.4,31.84l.4,.1q-.1,.1-.2,.1c0-.1-.1-.1-.2-.2h0Z"/><path class="cls-1" d="M27.1,31.44v-.3c.2,.1,.2,.2,.1,.3h-.1Z"/><path class="cls-1" d="M1.3,9.24v.3s-.1,0-.1,.1l-.1-.1c0-.1,0-.2,.1-.2l.1-.1Z"/><path class="cls-1" d="M69.9,1.94c-.2,.2-.3,.2-.4,0h.4Z"/><path class="cls-1" d="M72.3,1.14l.2,.2c-.1,.1-.2,0-.3,0h0l-.1-.2h.2Z"/><path class="cls-1" d="M20.7,1.24c-.1,0-.1,.1-.2,.1l-.1-.1,.1-.1q.1,0,.2,.1Z"/><path class="cls-1" d="M28.5,31.84c-.1,0-.2,0-.2-.1l.1-.1s.1,0,.1,.1v.1h0Z"/><path class="cls-1" d="M69.8,1.14l.1,.4-.3-.2c0-.1,.1-.1,.2-.2h0Z"/><path class="cls-1" d="M30,32.24l.2,.4c-.2-.1-.2-.2-.2-.4h0Z"/><path class="cls-1" d="M26.2,31.14l-.2,.2-.2-.2h.4Z"/><path class="cls-1" d="M70.6,.44q-.1,.3-.3,.1l.3-.1Z"/><path class="cls-1" d="M11.7,1.14v.3c-.1-.1-.1-.2,0-.3h0Z"/><path class="cls-1" d="M31.4,31.14c0-.1,.1-.1,.1-.1h.2v.1c-.1,0-.2,.1-.3,0h0Z"/><path class="cls-1" d="M7.6,1.84v-.2q.2,.1,0,.2h0Z"/><path class="cls-1" d="M26.3,32.34h0l-.1-.3c.2,0,.2,.1,.3,.2-.1,0-.1,.1-.2,.1Z"/><path class="cls-1" d="M24.8,32.74c-.1-.1-.2-.1,0-.3l.1,.3h-.1Z"/><path class="cls-1" d="M67.8,2.24q0-.1,.1-.1c.1,0,.2,.1,.1,.2,0-.1-.1-.1-.2-.1h0Z"/><path class="cls-1" d="M69,1.84l.4,.1c-.2,.1-.3,0-.4-.1h0Z"/><path class="cls-1" d="M72.6,1.84c-.1,0-.2,0-.2-.2l.2,.2h0Z"/><path class="cls-1" d="M25.5,31.74l-.3-.2q.3,0,.3,.2Z"/><path class="cls-1" d="M70.6,1.54c-.1,.1-.2,.2-.3,.1h0c0-.2,.1-.2,.3-.1Z"/><path class="cls-1" d="M69,1.54l-.2,.1-.1-.1h.3Z"/><path class="cls-1" d="M73.2,1.34c.2,0,.3,0,.3,.1l-.1,.1-.2-.2Z"/><path class="cls-1" d="M19.3,30.94c-.1,0-.1,.1-.2,.1l-.1-.1,.1-.1q.1,0,.2,.1Z"/><path class="cls-1" d="M26.7,30.74c.1,.1,0,.2-.1,.2q-.1-.1,.1-.2Z"/><path class="cls-1" d="M9.9,2.34q0-.2,.2-.1l-.2,.1Z"/><path class="cls-1" d="M29.5,31.14l.3-.1q-.1,.1-.3,.1Z"/><path class="cls-1" d="M73.5,1.84h.3c-.1,0-.2,.1-.3,0Z"/><path class="cls-1" d="M72.4,1.14s.1-.1,.3,0c-.1,.1-.2,.1-.3,0h0Z"/><path class="cls-1" d="M69.5,1.54l.2,.2q-.2-.1-.2-.2Z"/><path class="cls-1" d="M20,31.84l.2,.2c-.2,0-.2-.1-.2-.2Z"/><path class="cls-1" d="M30.9,31.14c-.1,0-.1-.1-.1-.1l.1-.1v.2c.1-.1,0,0,0,0Z"/><path class="cls-1" d="M29.1,31.84c-.1,0-.1-.1-.1-.2h.1q.1,.1,0,.2Z"/><path class="cls-1" d="M19.5,31.84l-.2-.2h.1l.1,.2h0Z"/><path class="cls-1" d="M72.1,1.14l.1,.2h-.2l.1-.2Z"/><path class="cls-1" d="M67.3,1.34h-.2c.1-.2,.1-.1,.2,0h0Z"/><path class="cls-1" d="M72,1.34l.3,.1h0v.2l-.3-.3Z"/><path class="cls-1" d="M28.5,31.34l-.1,.1s-.1,0-.1-.1c0,0,0-.1,.1-.1,0,.1,.1,.1,.1,.1Z"/><path class="cls-1" d="M68.2,1.84l-.1-.2h0s.1,0,.1,.1c.1,0,.1,.1,0,.1h0Z"/><path class="cls-1" d="M70.6,1.24l-.3-.1h0l.3,.1h0Z"/><path class="cls-1" d="M72.7,.54l.1,.1-.1,.1s-.1,0-.1-.1l.1-.1Z"/><path class="cls-1" d="M21.1,32.64l.2-.2c0,.2-.1,.2-.2,.2Z"/><path class="cls-1" d="M6.8,2.54h-.2s-.1,0-.1-.1h.1q.1,0,.2,.1Z"/><path class="cls-1" d="M6.4,30.84s0-.1-.1-.1h.1v.1c0-.1,0,0,0,0Z"/><path class="cls-1" d="M26.3,32.64h0v.1s-.1,0-.1-.1h.1Z"/><path class="cls-1" d="M18.3,31.24l-.1-.1h.1v.1h0Z"/><path class="cls-1" d="M66.5,1.94l.1,.1h0l-.1-.1h0Z"/><path class="cls-1" d="M31.1,31.04c.1,0,.1,.1,0,0,.1,.1,0,.1,0,.1v-.1c0,.1,0,0,0,0Z"/><path class="cls-1" d="M19.6,31.34l-.2-.2h0l.2,.2h0Z"/><path class="cls-1" d="M30.6,31.24v-.2h.1l.1,.1-.2,.1Z"/><path class="cls-1" d="M26.4,31.44v-.2h.1v.2h-.1Z"/><path class="cls-1" d="M74.2,1.74h-.3q.1-.1,.3,0h0Z"/><path class="cls-1" d="M25.5,32.24c0-.1-.1-.1-.1-.1h.1q.1,0,0,.1,.1,0,0,0Z"/><path class="cls-1" d="M19.9,31.44l.1,.1h-.1v-.1h0Z"/><path class="cls-1" d="M73.7,1.44s.1,0,.1-.1h.1l-.1,.1q0,.1-.1,0Z"/><path class="cls-1" d="M68.4,1.24s.1,.1,0,0q.1,.1,0,0,0,.1,0,0c0,.1,0,0,0,0Z"/><path class="cls-1" d="M68,1.34q-.1,0,0,0v0h0Z"/><path class="cls-1" d="M23,1.74q0-.1,0,0h0Z"/><path class="cls-1" d="M65.3,1.04h.2v.1l-.2-.1h0Z"/><path class="cls-1" d="M27.4,32.34v-.1h.1c-.1-.1,0,0-.1,.1q0-.1,0,0Z"/><path class="cls-1" d="M71,.94c0,.1-.1,.1,0,0-.1,.1-.2,0-.2,0h.2Z"/><path class="cls-1" d="M24.8,32.34h-.1v-.1s0,0,.1,.1h0Z"/><path class="cls-1" d="M22.7,31.34l.1,.1h-.1v-.1h0Z"/><path class="cls-1" d="M70.1,.84q0-.1,0,0v-.1q.1,0,0,.1,.1-.1,0,0Z"/><path class="cls-1" d="M66.7,1.84v-.1h.2q-.1,0-.2,.1Z"/><path class="cls-1" d="M8.3,2.84q-.1,0,0,0c-.1-.1,0-.1,0-.1t0,.1c0-.1,0,0,0,0Z"/><path class="cls-1" d="M69.8,.44q-.1-.1,0,0c-.1-.1,0-.1,0-.1,0-.1,0,0,0,.1q0-.1,0,0Z"/><path class="cls-1" d="M39.6,31.04h.5l-.1,.2c.2,.1,.2-.2,.4-.1s.3-.2,.5,0c0,.1-.1,.2-.2,.3-.1,0-.2,0-.3-.1-.2,.1-.4,.3-.5,.5v-.3h-.5c0-.2,.5-.2,.2-.5Z"/><path class="cls-1" d="M98.8,32.44s-.1,.1-.1,0c-.1-.1-.2-.1-.3,0-.1,0-.2,0-.3-.1-.1,0-.1-.1-.1-.2,.1-.2,.3-.2,.4,0,.2,0,.3,.1,.4,.3Z"/><path class="cls-1" d="M100.8,32.74l-.2-.2c-.1-.1,0-.3,.1-.3,.1-.1,.2,0,.3,0,.1,.1,.2,.2,0,.3,.1,.1-.1,.2-.2,.2h0Z"/><path class="cls-1" d="M123.3,10.24c.1,.2,.1,.4,.1,.6,0,.1,0,.2,.1,.3-.3,.1-.2,.4-.6,.4,.2-.1,.3-.2,.3-.4,0-.1,.1-.2,.2-.3,0-.1,0-.2-.1-.4-.1-.1,0-.1,0-.2Z"/><path class="cls-1" d="M123.7,16.34c0-.2,.2-.2,.5-.4v.2c0,.1-.1,.3-.1,.4s-.1,.1-.2,.1c-.1,0,.1-.2-.2-.3Z"/><path class="cls-1" d="M124.3,21.74l-.1,.5-.5-.1c0-.3,.4-.2,.6-.4Z"/><path class="cls-1" d="M123.9,9.84l.4,.4v.1h-.2l-.3-.3s0-.1,.1-.2h0Z"/><path class="cls-1" d="M95.8,32.14c-.1,0-.2-.1-.2-.2s.2-.2,.3-.2,.2,.1,.2,.2c-.1,.2-.2,.2-.3,.2h0Z"/><path class="cls-1" d="M75.2,31.54c-.2-.3-.2-.5,0-.6,.1,.2,.1,.4,0,.6Z"/><path class="cls-1" d="M101.8,31.14c-.1,.1-.2,.1-.3,.2l-.2-.1c0-.1,.1-.2,.3-.2,0,0,.1,0,.2,.1Z"/><path class="cls-1" d="M98.6,31.04c0-.2,.1-.2,.2-.2s.2,0,.2,.1-.1,.2-.2,.1h-.2Z"/><path class="cls-1" d="M122.2,19.04c-.1-.2,0-.5,.2-.6,.1,.2,0,.4-.2,.6Z"/><path class="cls-1" d="M122.9,12.14l.3-.4c.1,.2,.1,.3-.3,.4Z"/><path class="cls-1" d="M123.8,12.14c.1,.1,.3,.2,.4,.3v.1c-.4,0-.4-.2-.4-.4h0Z"/><path class="cls-1" d="M100.6,30.74c.1,.1,.2,.1,.2,.1,0,.1-.1,.1-.2,.1s-.1-.1-.1-.1l.1-.1Z"/><path class="cls-1" d="M123.7,13.94q.3,.2,.1,.5l-.1-.5Z"/><path class="cls-1" d="M122.8,13.64c.2,.1,.4,.1,.5,.3l-.5-.3h0Z"/><path class="cls-1" d="M123.9,18.54l-.1-.2h.1l.2,.2h-.2Z"/><path class="cls-1" d="M122.6,19.34c.2-.1,.4-.2,.6-.1-.2,.1-.4,.1-.6,.1Z"/><path class="cls-1" d="M100,31.94l.3,.1q-.2,.1-.3-.1Z"/><path class="cls-1" d="M122.5,27.44l.1-.3h.1v.1q.1,.1-.2,.2Z"/><path class="cls-1" d="M38.9,32.54l.2-.1q0,.2-.2,.3v-.2h0Z"/><path class="cls-1" d="M94.6,31.84l.2,.2-.1,.1c-.1,0-.1-.1-.2-.1-.1-.1,0-.1,.1-.2Z"/><path class="cls-1" d="M122.4,12.54c0-.1-.2-.2,0-.4,.1,.2,.2,.3,0,.4Z"/><path class="cls-1" d="M123.1,21.74l.2-.4h.1l-.2,.4h-.1Z"/><path class="cls-1" d="M122.2,19.24c-.1,.2,0,.3-.2,.4,0-.2,0-.3,.2-.4Z"/><path class="cls-1" d="M40.2,32.04c-.1-.1-.2,0-.2,0,0-.1,.1-.1,.1-.2,.1,0,.1-.1,.2-.1,.1,.2,.1,.3-.1,.3Z"/><path class="cls-1" d="M122.2,24.94l-.1,.4h-.1l.2-.4h0Z"/><path class="cls-1" d="M38.9,32.14l.4,.1-.1,.1c-.2,0-.3-.1-.3-.2h0Z"/><path class="cls-1" d="M98,31.44l-.1,.1-.1-.1,.1-.1,.1,.1Z"/><path class="cls-1" d="M122.2,21.44h0c.1,.1,.1,.2-.1,.2h-.1c-.1-.1,0-.2,.2-.2Z"/><path class="cls-1" d="M104.8,31.24c0-.1-.1-.1-.1-.1l.1-.1,.1,.1s-.1,0-.1,.1Z"/><path class="cls-1" d="M122.4,14.44v-.3q.1,.1,0,.3Z"/><path class="cls-1" d="M42,31.54h-.2l.3-.2-.1,.2h0Z"/><path class="cls-1" d="M124.1,24.64q-.1,.2-.3,0h.3Z"/><path class="cls-1" d="M113.2,32.64l-.2,.1-.1-.1,.1-.1c.1,.1,.2,.1,.2,.1Z"/><path class="cls-1" d="M118.1,31.64c-.1-.1,0-.3,.1-.4,.1,.2-.1,.3-.1,.4h0Z"/><path class="cls-1" d="M44.1,31.94l.2-.2h.1l-.3,.2h0Z"/><path class="cls-1" d="M121.9,13.74v-.3h.1v.3h-.1Z"/><path class="cls-1" d="M42.3,31.94h.2l-.2,.2h-.1l.1-.2Z"/><path class="cls-1" d="M92.3,31.04h-.2s-.1,0-.1-.1c0,0,0-.1,.1-.1l.2,.2Z"/><path class="cls-1" d="M41.8,32.04c0,.1,0,.2-.2,.2-.1-.1,0-.2,.2-.2Z"/><path class="cls-1" d="M122.8,14.84v-.3q.1,0,0,.3Z"/><path class="cls-1" d="M123.6,24.04h.2v.1l-.2-.1h0Z"/><path class="cls-1" d="M121.7,14.24l.1-.3h.1v.3h-.2Z"/><path class="cls-1" d="M102,32.64l-.1,.1-.1-.1,.1-.1,.1,.1Z"/><path class="cls-1" d="M102.4,30.94c0,.1-.1,.2-.3,.1l.3-.1Z"/><path class="cls-1" d="M93.8,32.54c-.1,0-.1,.1-.1,.1,0,0-.1,0-.1-.1,0,0,0-.1,.1-.1,0,.1,.1,.1,.1,.1Z"/><path class="cls-1" d="M120.3,27.64v.2h-.1l.1-.2h0Z"/><path class="cls-1" d="M123.9,20.64h-.1s-.1,0-.1-.1h.1s0,.1,.1,.1Z"/><path class="cls-1" d="M46.9,31.64l.2-.2q0,.2-.2,.2Z"/><path class="cls-1" d="M44.4,32.34l-.2,.1c-.1-.1,0-.2,.2-.1h0Z"/><path class="cls-1" d="M123.5,11.34v.2h-.1l-.1-.1,.2-.1Z"/><path class="cls-1" d="M43.9,32.64h.3c-.1,.2-.2,.1-.3,0Z"/><path class="cls-1" d="M101.7,31.54v-.1h.1l-.1,.1h0Z"/><path class="cls-1" d="M42,31.54l.1,.1-.3,.1c.1-.1,.2-.1,.2-.2h0Z"/><path class="cls-1" d="M93.3,31.94c0,.1,.1,.1,.1,.1l-.1,.1q-.1-.1,0-.2-.1,0,0,0Z"/><path class="cls-1" d="M37.1,32.04c.1,0,.2,0,.2,.2l-.2-.2h0Z"/><path class="cls-1" d="M101.3,31.84q0-.1,0,0-.1-.1,0-.2s.1,0,.1,.1,0,0-.1,.1Z"/><path class="cls-1" d="M120.5,28.14l-.1,.3q-.1-.2,.1-.3Z"/><path class="cls-1" d="M123.3,15.34l-.2,.2q0-.1,.2-.2Z"/><path class="cls-1" d="M123.8,23.74h.2v.1l-.2-.1h0Z"/><path class="cls-1" d="M41.7,30.94l.2,.1q-.2,.1-.2-.1h0Z"/><path class="cls-1" d="M123.7,23.34h-.1s-.1,0-.1-.1h.1q.1,0,.1,.1Z"/><path class="cls-1" d="M96.6,31.34h-.1l-.1-.1q.1,.1,.2,.1h0Z"/><path class="cls-1" d="M122.9,14.24l-.2-.1q.2-.1,.2,.1Z"/><path class="cls-1" d="M44.4,32.04l-.1,.1-.1-.1h.2Z"/><path class="cls-1" d="M38.9,32.54c-.1,0-.2,0-.2-.1,.1,0,.2,.1,.2,.1h0Z"/><path class="cls-1" d="M92.5,32.64h-.1q0-.1,.1,0c-.1-.1,0-.1,0,0Z"/><path class="cls-1" d="M93.9,2.04c-.2-.2-.2-.4-.2-.6v-.4c0-.2,.1-.3,.2-.3,.2,0,.4,0,.6,.2l-.4,.1c0,.2,0,.5,.2,.7h-.3v.3h-.1Z"/><path class="cls-1" d="M90.5,.54c.2,.1,.2,.3,.1,.4,0,0-.1,.1-.1,0l-.1-.1s0-.2,.1-.3Z"/><path class="cls-1" d="M94.9,.64l.1,.6h-.2c-.1-.1-.1-.4,0-.5l.1-.1Z"/><path class="cls-1" d="M95.3,2.14c-.1,0-.1-.1-.1-.1v-.2h.1c0,.1,.1,.1,.1,.2l-.1,.1h0Z"/><path class="cls-1" d="M116.2,1.54c.1,.2,0,.3-.2,.4q0-.2,.2-.4Z"/><path class="cls-1" d="M99.3,1.84l-.1-.1,.1-.1,.1,.1s-.1,0-.1,.1Z"/><path class="cls-1" d="M89.1,.44c.2-.1,.3,0,.4,.1-.1,.1-.3,0-.4-.1Z"/><path class="cls-1" d="M90.5,1.64v.3c-.2-.1-.2-.2,0-.3Z"/><path class="cls-1" d="M102.1,.34c-.1,.1-.2,.1-.3,0v-.1c.1,0,.2,0,.3,.1Z"/><path class="cls-1" d="M89.7,1.74c-.2,0-.2-.1-.1-.2h.1c.1,0,.1,.1,0,.2Z"/><path class="cls-1" d="M97.8,.74h-.2v-.1s.1,0,.2,.1h0Z"/><path class="cls-1" d="M91.4,1.14s-.1,.1-.2,.1c0,0-.1,0-.1-.1l.1-.1q.1,.1,.2,.1Z"/><path class="cls-1" d="M88.7,1.64c-.1,0-.1-.1-.2-.1h0l.2,.1h0Z"/><path class="cls-1" d="M91.4,.34h-.2v-.1l.2,.1h0Z"/><path class="cls-1" d="M121.5,4.64l.2-.1,.2,.2c-.1,.2-.2,.3-.2,.5s-.1,.3-.1,.5c-.3-.1-.1-.3-.3-.4l-.1,.2h0v-.3c0-.1,.1-.1,.1-.1,.2-.1,.2-.2,.2-.2-.2-.1,0-.2,0-.3h0Z"/><path class="cls-1" d="M122,7.04c-.2,0-.3-.1-.2-.2,.1-.2,.2-.5,.2-.7q.2,.2,0,.9Z"/><path class="cls-1" d="M121.5,3.94v.8h-.1c-.2-.2-.1-.5,0-.6q0-.2,.1-.2h0Z"/><path class="cls-1" d="M121.1,4.84c.1,.2,0,.4-.2,.5h-.1l.3-.5Z"/><path class="cls-1" d="M122.3,7.64c-.1-.3,0-.3,.3-.4l-.3,.4Z"/><path class="cls-1" d="M121.5,3.94c.1,0,.3,0,.3,.1s0,.2-.1,.3c-.1-.2-.2-.3-.2-.4h0Z"/><path class="cls-1" d="M121.3,7.04l.1-.1q.2,.1,.2,.2l-.3-.1Z"/><path class="cls-1" d="M122.2,7.14c-.1-.1-.1-.2,.1-.3l-.1,.3h0Z"/><path class="cls-1" d="M122.1,7.84l-.1,.2q-.1-.2,.1-.2Z"/><path class="cls-1" d="M122.6,5.04l-.2,.2q0-.1,.2-.2Z"/><path class="cls-1" d="M121.8,4.24v-.3c.2,.1,.2,.2,0,.3Z"/><path class="cls-1" d="M122.6,4.64l-.2,.2c0-.1,.1-.1,.2-.2h0Z"/><path class="cls-1" d="M121.7,8.44l.2-.2v.1c0,.1,0,.2-.2,.1Z"/><path class="cls-1" d="M121.7,8.14s0,.1-.1,.1h-.1c.1,0,.1-.1,.2-.1h0Z"/><path class="cls-1" d="M118.8,3.74l-.1-.1c.1-.1,.1-.3,.1-.4,0,0,.1-.1,.1-.2h.1c0,.1,.1,.1,.1,.2-.1,.2-.2,.3-.3,.5h0Z"/><path class="cls-1" d="M117.7,1.94l.1-.2h.1l-.2,.2h0Z"/><path class="cls-1" d="M84.6,2.14c-.1-.1,.1-.2,.2-.2q.1,.2-.2,.2h0Z"/><path class="cls-1" d="M83.1,2.14h.3q-.2,.2-.3,0h0Z"/><path class="cls-1" d="M86.8,1.54c0,.1,.1,.1,0,.1s-.2,0-.1-.1c-.1-.1,0,0,.1,0h0Z"/><path class="cls-1" d="M86.9,.54l-.1-.1h.1v.1h0Z"/><path class="cls-1" d="M86.8,1.54l.2-.2q0,.2-.2,.2h0Z"/><g><path class="cls-3" d="M22.16,14.69c-.91,.5-1.93,.74-3.05,.74-1.29,0-2.34-.4-3.14-1.21s-1.2-1.87-1.2-3.2,.44-2.47,1.32-3.34,1.99-1.3,3.34-1.3c.97,0,1.79,.14,2.45,.43v1.5c-.67-.45-1.47-.67-2.4-.67s-1.7,.31-2.29,.92c-.6,.61-.89,1.41-.89,2.39s.26,1.8,.77,2.37,1.21,.86,2.09,.86c.6,0,1.12-.12,1.56-.35v-2.08h-1.84v-1.22h3.29v4.16Z"/><path class="cls-3" d="M24.61,7.72c-.23,0-.43-.08-.6-.23-.16-.15-.25-.34-.25-.57s.08-.43,.25-.58c.17-.15,.36-.23,.6-.23s.44,.08,.61,.23c.17,.15,.25,.35,.25,.58,0,.22-.08,.41-.25,.56-.17,.16-.37,.23-.61,.23Zm.7,7.56h-1.42v-6.25h1.42v6.25Z"/><path class="cls-3" d="M28.58,15.29h-1.42V6.03h1.42V15.29Z"/><path class="cls-3" d="M33.72,15.22c-.28,.14-.64,.21-1.09,.21-1.21,0-1.82-.58-1.82-1.75v-3.53h-1.04v-1.11h1.04v-1.45l1.42-.4v1.85h1.5v1.11h-1.5v3.12c0,.37,.07,.63,.2,.79,.13,.16,.36,.24,.67,.24,.24,0,.45-.07,.62-.21v1.12Z"/><path class="cls-3" d="M41.91,7.19c-.19-.11-.41-.16-.65-.16-.69,0-1.03,.39-1.03,1.17v.85h1.45v1.11h-1.45v5.14h-1.42v-5.14h-1.07v-1.11h1.07v-1.01c0-.66,.22-1.18,.65-1.56,.43-.38,.97-.57,1.62-.57,.35,0,.63,.04,.83,.12v1.18Z"/><path class="cls-3" d="M48.13,15.29h-1.42v-.99h-.02c-.41,.76-1.05,1.14-1.92,1.14-1.48,0-2.22-.89-2.22-2.66v-3.74h1.42v3.59c0,1.12,.43,1.68,1.3,1.68,.42,0,.76-.15,1.03-.46,.27-.31,.41-.71,.41-1.21v-3.59h1.42v6.25Zm-4.02-7.34c-.21,0-.39-.07-.54-.21-.15-.14-.23-.31-.23-.5s.07-.37,.22-.5c.14-.13,.32-.2,.53-.2s.39,.07,.54,.2c.15,.14,.23,.3,.23,.5s-.07,.37-.22,.51c-.15,.14-.32,.21-.52,.21Zm2.54,0c-.2,0-.38-.07-.53-.2-.15-.13-.22-.31-.22-.51s.07-.37,.21-.5,.32-.2,.52-.2c.22,0,.4,.07,.55,.2,.15,.14,.22,.3,.22,.5s-.07,.37-.21,.51c-.14,.14-.32,.21-.54,.21Z"/><path class="cls-3" d="M53.6,10.38c-.17-.13-.42-.2-.74-.2-.42,0-.77,.19-1.05,.57-.28,.38-.42,.89-.42,1.54v2.99h-1.42v-6.25h1.42v1.29h.02c.14-.44,.35-.78,.64-1.03,.29-.25,.61-.37,.96-.37,.26,0,.45,.04,.59,.12v1.34Z"/><path class="cls-3" d="M65.39,15.29h-1.59l-.79-2.23h-3.44l-.76,2.23h-1.59l3.28-8.75h1.64l3.25,8.75Zm-2.77-3.41l-1.21-3.49c-.04-.11-.08-.3-.12-.55h-.02c-.04,.23-.08,.42-.12,.55l-1.2,3.49h2.68Z"/><path class="cls-3" d="M72.52,14.92c-.66,.34-1.48,.51-2.46,.51-1.27,0-2.29-.4-3.05-1.2-.76-.8-1.15-1.85-1.15-3.16,0-1.4,.43-2.53,1.29-3.39,.86-.86,1.95-1.29,3.26-1.29,.85,0,1.55,.12,2.11,.36v1.44c-.59-.35-1.24-.52-1.95-.52-.95,0-1.72,.3-2.3,.91-.59,.61-.88,1.42-.88,2.43s.27,1.73,.82,2.3c.55,.57,1.27,.86,2.17,.86,.83,0,1.54-.2,2.15-.59v1.34Z"/><path class="cls-3" d="M82.84,9.04l-2.42,6.25h-1.53l-2.3-6.25h1.54l1.39,4.37c.11,.32,.17,.6,.2,.84h.02c.04-.3,.09-.57,.17-.82l1.45-4.39h1.49Z"/><path class="cls-3" d="M89.15,7.24c-.37,.67-.71,1.34-1.04,1.99-.33,.66-.62,1.32-.89,1.98-.26,.66-.49,1.33-.69,2.01s-.35,1.36-.45,2.07h-1.48c.1-.63,.24-1.25,.42-1.88,.18-.62,.39-1.25,.64-1.87s.52-1.25,.82-1.88c.3-.63,.62-1.27,.97-1.91h-4.14v-1.21h5.85v.71Z"/><path class="cls-3" d="M91.82,13.83l-.95,3.05h-1.06l.67-3.05h1.34Z"/><path class="cls-3" d="M102.33,9.04l-2.42,6.25h-1.53l-2.3-6.25h1.54l1.39,4.37c.11,.32,.17,.6,.2,.84h.02c.04-.3,.09-.57,.17-.82l1.45-4.39h1.49Z"/><path class="cls-3" d="M102.93,12.84c0-.25,.03-.5,.09-.73,.06-.24,.16-.45,.28-.65,.13-.2,.29-.38,.48-.54,.19-.16,.42-.29,.67-.38-.38-.21-.68-.48-.9-.81-.22-.33-.34-.7-.34-1.1,0-.32,.07-.62,.2-.89,.13-.27,.31-.51,.55-.71s.51-.35,.83-.47,.66-.17,1.04-.17,.73,.06,1.05,.17,.6,.27,.83,.47c.23,.2,.42,.44,.55,.71,.13,.27,.2,.57,.2,.88,0,.4-.11,.77-.34,1.1-.22,.33-.52,.6-.89,.81,.25,.1,.48,.23,.67,.38,.19,.16,.35,.33,.49,.53,.13,.2,.23,.42,.29,.65,.06,.24,.1,.48,.1,.74,0,.38-.07,.73-.21,1.05s-.34,.59-.6,.81c-.26,.23-.56,.4-.92,.53-.36,.13-.75,.19-1.18,.19s-.82-.06-1.17-.19-.66-.3-.92-.53c-.26-.23-.46-.5-.6-.81-.14-.32-.22-.67-.22-1.05Zm1.38-.12c0,.25,.04,.47,.11,.67s.18,.37,.31,.51c.13,.14,.3,.24,.49,.32,.19,.07,.4,.11,.63,.11s.43-.04,.62-.11c.19-.08,.35-.18,.48-.32,.14-.14,.24-.31,.32-.51,.08-.2,.12-.42,.12-.66,0-.22-.04-.43-.11-.63-.07-.2-.18-.37-.31-.52s-.3-.26-.49-.35c-.19-.09-.4-.13-.63-.13-.22,0-.42,.04-.61,.12-.19,.08-.35,.19-.49,.34-.14,.14-.24,.32-.32,.52-.08,.2-.12,.42-.12,.65Zm.3-3.96c0,.18,.03,.35,.1,.51,.06,.16,.15,.29,.26,.41,.11,.12,.24,.21,.39,.27,.15,.06,.31,.1,.48,.1s.33-.03,.48-.1c.15-.07,.28-.16,.39-.27,.11-.12,.2-.25,.27-.41,.07-.16,.1-.32,.1-.5s-.03-.35-.09-.51c-.06-.16-.15-.29-.26-.41-.11-.11-.24-.2-.39-.27-.15-.06-.31-.1-.49-.1-.18,0-.35,.03-.5,.1-.15,.07-.28,.16-.39,.28-.11,.12-.19,.26-.25,.41-.06,.16-.09,.32-.09,.5Z"/><path class="cls-3" d="M45.7,27.28h-1.42v-.99h-.02c-.41,.76-1.05,1.13-1.92,1.13-1.48,0-2.22-.89-2.22-2.66v-3.74h1.42v3.59c0,1.12,.43,1.68,1.3,1.68,.42,0,.76-.15,1.03-.46,.27-.31,.41-.71,.41-1.21v-3.59h1.42v6.25Z"/><path class="cls-3" d="M53.11,27.28h-1.42v-3.52c0-1.17-.41-1.75-1.24-1.75-.43,0-.79,.16-1.07,.49-.28,.32-.42,.73-.42,1.22v3.56h-1.42v-6.25h1.42v1.04h.02c.47-.79,1.14-1.18,2.03-1.18,.68,0,1.2,.22,1.56,.66,.36,.44,.54,1.08,.54,1.91v3.82Z"/><path class="cls-3" d="M60.52,27.28h-1.42v-1.06h-.02c-.46,.81-1.16,1.21-2.11,1.21-.77,0-1.38-.28-1.85-.84s-.69-1.32-.69-2.29c0-1.03,.26-1.86,.77-2.48,.51-.62,1.19-.93,2.04-.93s1.46,.34,1.84,1.01h.02v-3.87h1.42v9.25Zm-1.4-2.86v-.82c0-.44-.14-.82-.43-1.13-.29-.31-.66-.46-1.1-.46-.53,0-.94,.2-1.25,.59-.3,.4-.45,.94-.45,1.64,0,.63,.15,1.14,.44,1.5,.29,.37,.68,.55,1.17,.55s.88-.18,1.18-.53c.3-.36,.45-.8,.45-1.35Z"/><path class="cls-3" d="M73.16,27.28h-1.59l-.79-2.23h-3.44l-.76,2.23h-1.59l3.28-8.75h1.63l3.25,8.75Zm-2.77-3.41l-1.21-3.49c-.04-.11-.08-.3-.12-.55h-.02c-.04,.23-.08,.42-.12,.55l-1.2,3.49h2.68Z"/><path class="cls-3" d="M80.28,26.92c-.66,.34-1.48,.51-2.46,.51-1.27,0-2.29-.4-3.05-1.2-.77-.8-1.15-1.85-1.15-3.16,0-1.4,.43-2.53,1.29-3.39,.86-.86,1.95-1.29,3.26-1.29,.85,0,1.55,.12,2.11,.36v1.44c-.59-.35-1.24-.52-1.95-.52-.95,0-1.72,.3-2.3,.91s-.88,1.42-.88,2.43,.27,1.73,.82,2.3c.55,.57,1.27,.86,2.17,.86,.83,0,1.54-.2,2.15-.59v1.34Z"/><path class="cls-3" d="M81.54,26.94v-1.5c.13,.12,.29,.23,.48,.33,.18,.1,.38,.18,.59,.25,.21,.07,.42,.12,.62,.16,.21,.04,.4,.06,.57,.06,.61,0,1.06-.1,1.36-.31,.3-.2,.45-.5,.45-.88,0-.21-.05-.39-.15-.54s-.24-.29-.42-.42c-.18-.13-.39-.25-.63-.36s-.5-.24-.78-.36c-.3-.16-.57-.32-.83-.48-.26-.16-.48-.34-.67-.54s-.34-.42-.45-.67-.16-.54-.16-.87c0-.41,.09-.77,.28-1.07,.18-.3,.43-.55,.73-.75,.3-.2,.65-.34,1.03-.44s.78-.14,1.18-.14c.92,0,1.58,.1,2,.31v1.43c-.5-.36-1.14-.54-1.92-.54-.21,0-.43,.02-.64,.06-.21,.04-.41,.11-.57,.2-.17,.09-.31,.21-.41,.36-.11,.15-.16,.32-.16,.53,0,.2,.04,.36,.12,.51s.2,.27,.36,.39c.16,.12,.35,.23,.57,.34,.23,.11,.49,.23,.78,.36,.31,.16,.59,.33,.86,.5,.27,.18,.51,.37,.71,.58,.21,.21,.37,.45,.49,.71,.12,.26,.18,.55,.18,.88,0,.44-.09,.82-.27,1.12-.18,.31-.42,.55-.72,.75-.3,.19-.65,.33-1.05,.42-.4,.08-.81,.13-1.25,.13-.15,0-.33-.01-.54-.03-.21-.02-.43-.06-.66-.1-.22-.04-.44-.09-.63-.16-.2-.06-.36-.13-.48-.21Z"/></g></g></svg>